<svg width="53" height="53" viewBox="0 0 53 53" fill="none" xmlns="http://www.w3.org/2000/svg">
<path d="M40.2621 15.9058C39.7834 15.9063 39.3093 15.8123 38.8669 15.6293C38.4245 15.4463 38.0225 15.1779 37.684 14.8393C37.3455 14.5008 37.077 14.0989 36.894 13.6565C36.711 13.2141 36.6171 12.7399 36.6175 12.2612M40.2621 15.9058C42.2738 15.9056 43.9029 14.2757 43.9029 12.2617C43.9029 11.7833 43.8087 11.3096 43.6256 10.8677C43.4426 10.4257 43.1743 10.0241 42.836 9.68588C42.4977 9.34762 42.0962 9.07931 41.6542 8.89624C41.2123 8.71318 40.7386 8.61896 40.2602 8.61896C39.7818 8.61896 39.3082 8.71318 38.8662 8.89624C38.4242 9.07931 38.0227 9.34763 37.6844 9.68588C37.3462 10.0241 37.0778 10.4257 36.8948 10.8677C36.7118 11.3095 36.6176 11.783 36.6175 12.2612M40.2621 15.9058C40.262 15.9058 40.2618 15.9058 40.2617 15.9058V15.4058L40.2621 15.9058ZM36.6175 12.2612L37.1175 12.2617H36.6175C36.6175 12.2615 36.6175 12.2614 36.6175 12.2612ZM52.3542 15.5283L51.855 15.5575C52.0168 18.3216 52.0175 19.2144 52.0233 26.2683L52.0233 26.3463C52.0233 33.4681 51.9854 34.3494 51.8605 37.1448L51.8603 37.1448L51.8601 37.1571C51.8175 39.2845 51.4172 41.3801 50.6707 43.3677C50.0194 45.0451 49.0259 46.5686 47.7535 47.841C46.481 49.1135 44.9574 50.107 43.2799 50.7583C41.2932 51.5037 39.1942 51.9058 37.0727 51.9476L37.0629 51.9478L37.0532 51.9484C34.2851 52.1107 33.3873 52.1108 26.2617 52.1108C19.1428 52.1108 18.2614 52.0729 15.4631 51.948L15.4631 51.948L15.4573 51.9478C13.3306 51.8778 11.2315 51.4455 9.25028 50.6694L9.24839 50.6687C7.56926 50.0188 6.04416 49.0258 4.77052 47.7532C3.49754 46.4811 2.50375 44.9577 1.85258 43.2801C1.10609 41.2895 0.705833 39.1939 0.663233 37.0696L0.66304 37.0599L0.662478 37.0503C0.500156 34.2793 0.5 33.3844 0.5 26.2588C0.5 19.1399 0.537886 18.2585 0.662836 15.4602L0.663001 15.4602L0.663244 15.4474C0.703344 13.3267 1.10557 11.2285 1.85254 9.24333C2.50261 7.56509 3.49569 6.04094 4.76832 4.76832C6.04089 3.49574 7.56497 2.50269 9.24314 1.85262C11.2293 1.10735 13.3274 0.704197 15.4483 0.66031L15.4575 0.660119L15.4667 0.65959C18.2351 0.500151 19.1331 0.5 26.2587 0.5C33.378 0.5 34.2592 0.534981 37.0543 0.659918L37.0543 0.660064L37.0664 0.660312C39.1883 0.703878 41.2873 1.10703 43.2744 1.85261C44.9522 2.50315 46.4761 3.49638 47.7486 4.76889C49.0212 6.0415 50.0145 7.56548 50.665 9.24352C51.4232 11.2559 51.8256 13.3847 51.8542 15.535L52.3542 15.5283ZM12.2575 26.2442C12.2575 33.9695 18.5159 40.2279 26.2413 40.2279C29.95 40.2279 33.5068 38.7546 36.1293 36.1322C38.7517 33.5097 40.225 29.9529 40.225 26.2442C40.225 22.5354 38.7517 18.9786 36.1293 16.3562C33.5068 13.7337 29.95 12.2604 26.2413 12.2604C18.5159 12.2604 12.2575 18.5189 12.2575 26.2442Z" stroke="black"/>
<path d="M34.5003 26.2442C34.5003 30.8054 30.8027 34.503 26.2415 34.503C21.6804 34.503 17.9828 30.8054 17.9828 26.2442C17.9828 21.683 21.6804 17.9855 26.2415 17.9855C30.8027 17.9855 34.5003 21.683 34.5003 26.2442Z" stroke="black"/>
</svg>
