<svg width="21" height="18" viewBox="0 0 21 18" fill="none" xmlns="http://www.w3.org/2000/svg">
<path d="M20.4489 1.49836L20.4488 1.499L17.2808 16.4391C17.1751 16.9023 17.0168 17.0438 16.9298 17.0835C16.8477 17.121 16.6585 17.1451 16.2913 16.9452L11.489 13.4064L11.1496 13.1563L10.8458 13.4486L8.51629 15.6896L8.51622 15.6896L8.50938 15.6964C8.48728 15.7185 8.46683 15.7389 8.44774 15.7576L8.72425 11.8422L17.5204 3.89394C17.5209 3.89346 17.5215 3.89297 17.522 3.89249C17.6519 3.77647 17.821 3.5808 17.8305 3.31321C17.8427 2.96851 17.5978 2.76591 17.3946 2.69338C17.2076 2.6267 17.0082 2.63768 16.841 2.6757C16.6665 2.71539 16.4856 2.79349 16.3117 2.9087L5.44992 9.74831L0.907814 8.32631L0.907388 8.32617C0.69066 8.25854 0.572498 8.18351 0.519191 8.13335C0.517554 8.13181 0.516014 8.13033 0.514566 8.12892C0.527729 8.11061 0.550625 8.08384 0.589791 8.04929C0.692231 7.95893 0.871787 7.84769 1.15547 7.73655C1.15587 7.73639 1.15626 7.73624 1.15666 7.73608L19.7777 0.56192C19.7783 0.561673 19.779 0.561426 19.7796 0.561181C20.0928 0.444405 20.2719 0.515358 20.3512 0.592089C20.4377 0.675872 20.5714 0.924568 20.4489 1.49836ZM17.1012 3.64523C17.1012 3.64524 17.1008 3.64526 17.0998 3.6452C17.1008 3.64519 17.1012 3.64521 17.1012 3.64523ZM0.49356 8.10469C0.49359 8.10469 0.493846 8.10509 0.494241 8.10588L0.49356 8.10469Z" stroke="black"/>
</svg>
